<mxfile host="app.diagrams.net" modified="2024-06-29T07:26:27.114Z" agent="Mozilla/5.0 (X11; Linux x86_64) AppleWebKit/537.36 (KHTML, like Gecko) Chrome/123.0.0.0 Safari/537.36" etag="mzXYDAEbnWX30Yn0I7_s" version="24.6.4" type="google">
  <diagram name="Page-1" id="eKmYvczm5sZ4uzTXXk1F">
    <mxGraphModel dx="1183" dy="677" grid="1" gridSize="10" guides="1" tooltips="1" connect="1" arrows="1" fold="1" page="1" pageScale="1" pageWidth="850" pageHeight="1100" math="0" shadow="0">
      <root>
        <mxCell id="0" />
        <mxCell id="1" parent="0" />
        <mxCell id="Ka9au9_dpPtv9UXWhTp8-1" value="&lt;font style=&quot;font-size: 11px;&quot;&gt;Mobilized Ambulance at Incident Time&lt;/font&gt;" style="shape=parallelogram;perimeter=parallelogramPerimeter;whiteSpace=wrap;html=1;fixedSize=1;" parent="1" vertex="1">
          <mxGeometry x="370" y="90" width="150" height="60" as="geometry" />
        </mxCell>
        <mxCell id="Ka9au9_dpPtv9UXWhTp8-2" value="&lt;font style=&quot;font-size: 10px;&quot;&gt;Mobilized Ambulance Not at Incident Time&lt;/font&gt;" style="shape=parallelogram;perimeter=parallelogramPerimeter;whiteSpace=wrap;html=1;fixedSize=1;flipV=1;" parent="1" vertex="1">
          <mxGeometry x="360" y="190" width="160" height="60" as="geometry" />
        </mxCell>
        <mxCell id="Ka9au9_dpPtv9UXWhTp8-23" value="&lt;font style=&quot;font-size: 10px;&quot;&gt;Ambulance lost&lt;/font&gt;" style="shape=parallelogram;perimeter=parallelogramPerimeter;whiteSpace=wrap;html=1;fixedSize=1;flipV=1;" parent="1" vertex="1">
          <mxGeometry x="305" y="300" width="120" height="40" as="geometry" />
        </mxCell>
        <mxCell id="Ka9au9_dpPtv9UXWhTp8-24" style="edgeStyle=orthogonalEdgeStyle;rounded=0;orthogonalLoop=1;jettySize=auto;html=1;entryX=0.504;entryY=-0.034;entryDx=0;entryDy=0;entryPerimeter=0;startArrow=halfCircle;startFill=0;" parent="1" source="Ka9au9_dpPtv9UXWhTp8-23" target="Ka9au9_dpPtv9UXWhTp8-2" edge="1">
          <mxGeometry relative="1" as="geometry" />
        </mxCell>
        <mxCell id="Ka9au9_dpPtv9UXWhTp8-25" value="&lt;font style=&quot;font-size: 9px;&quot;&gt;Ambulance stopped&lt;/font&gt;" style="shape=parallelogram;perimeter=parallelogramPerimeter;whiteSpace=wrap;html=1;fixedSize=1;flipV=1;" parent="1" vertex="1">
          <mxGeometry x="460" y="300" width="120" height="40" as="geometry" />
        </mxCell>
        <mxCell id="Ka9au9_dpPtv9UXWhTp8-26" style="edgeStyle=orthogonalEdgeStyle;rounded=0;orthogonalLoop=1;jettySize=auto;html=1;entryX=0.592;entryY=-0.025;entryDx=0;entryDy=0;entryPerimeter=0;startArrow=halfCircle;startFill=0;" parent="1" source="Ka9au9_dpPtv9UXWhTp8-25" target="Ka9au9_dpPtv9UXWhTp8-2" edge="1">
          <mxGeometry relative="1" as="geometry" />
        </mxCell>
        <mxCell id="Ka9au9_dpPtv9UXWhTp8-3" style="edgeStyle=elbowEdgeStyle;rounded=0;orthogonalLoop=1;jettySize=auto;html=1;entryX=0.422;entryY=1.022;entryDx=0;entryDy=0;entryPerimeter=0;" parent="1" edge="1">
          <mxGeometry relative="1" as="geometry">
            <mxPoint x="437.33333333333337" y="190" as="sourcePoint" />
            <mxPoint x="437.30000000000007" y="151.32" as="targetPoint" />
          </mxGeometry>
        </mxCell>
        <mxCell id="Ka9au9_dpPtv9UXWhTp8-22" value="" style="endArrow=none;html=1;rounded=0;strokeWidth=2;" parent="1" edge="1">
          <mxGeometry width="50" height="50" relative="1" as="geometry">
            <mxPoint x="430" y="174" as="sourcePoint" />
            <mxPoint x="445" y="174" as="targetPoint" />
          </mxGeometry>
        </mxCell>
        <mxCell id="gxvMVTcQrBQrgA4OGQgi-1" value="&lt;font style=&quot;font-size: 9px;&quot;&gt;Ambulance driver not in familiar area&lt;/font&gt;" style="shape=parallelogram;perimeter=parallelogramPerimeter;whiteSpace=wrap;html=1;fixedSize=1;flipV=1;" vertex="1" parent="1">
          <mxGeometry x="260" y="410" width="110" height="40" as="geometry" />
        </mxCell>
        <mxCell id="gxvMVTcQrBQrgA4OGQgi-2" value="&lt;font style=&quot;font-size: 9px;&quot;&gt;Car GPS doesn&#39;t work&lt;/font&gt;" style="shape=parallelogram;perimeter=parallelogramPerimeter;whiteSpace=wrap;html=1;fixedSize=1;flipV=1;" vertex="1" parent="1">
          <mxGeometry x="380" y="410" width="80" height="40" as="geometry" />
        </mxCell>
        <mxCell id="gxvMVTcQrBQrgA4OGQgi-4" style="edgeStyle=orthogonalEdgeStyle;rounded=0;orthogonalLoop=1;jettySize=auto;html=1;entryX=0.5;entryY=1;entryDx=0;entryDy=0;" edge="1" parent="1" source="gxvMVTcQrBQrgA4OGQgi-3" target="Ka9au9_dpPtv9UXWhTp8-23">
          <mxGeometry relative="1" as="geometry" />
        </mxCell>
        <mxCell id="gxvMVTcQrBQrgA4OGQgi-5" style="edgeStyle=orthogonalEdgeStyle;rounded=0;orthogonalLoop=1;jettySize=auto;html=1;exitX=0;exitY=1;exitDx=0;exitDy=0;endArrow=none;endFill=0;" edge="1" parent="1" source="gxvMVTcQrBQrgA4OGQgi-3" target="gxvMVTcQrBQrgA4OGQgi-1">
          <mxGeometry relative="1" as="geometry" />
        </mxCell>
        <mxCell id="gxvMVTcQrBQrgA4OGQgi-3" value="" style="ellipse;whiteSpace=wrap;html=1;aspect=fixed;fillColor=#D4E1F5;" vertex="1" parent="1">
          <mxGeometry x="360" y="360" width="10" height="10" as="geometry" />
        </mxCell>
        <mxCell id="gxvMVTcQrBQrgA4OGQgi-6" style="edgeStyle=orthogonalEdgeStyle;rounded=0;orthogonalLoop=1;jettySize=auto;html=1;exitX=1;exitY=1;exitDx=0;exitDy=0;entryX=0.375;entryY=1;entryDx=0;entryDy=0;entryPerimeter=0;endArrow=none;endFill=0;" edge="1" parent="1" source="gxvMVTcQrBQrgA4OGQgi-3" target="gxvMVTcQrBQrgA4OGQgi-2">
          <mxGeometry relative="1" as="geometry" />
        </mxCell>
      </root>
    </mxGraphModel>
  </diagram>
</mxfile>
